<svg width="16" height="16" viewBox="0 0 16 16" fill="none" xmlns="http://www.w3.org/2000/svg">
<g clip-path="url(#clip0_10_661)">
<path d="M7.33337 1.33325C10.6454 1.33325 13.3334 4.02125 13.3334 7.33325C13.3334 10.6453 10.6454 13.3333 7.33337 13.3333C4.02137 13.3333 1.33337 10.6453 1.33337 7.33325C1.33337 4.02125 4.02137 1.33325 7.33337 1.33325ZM7.33337 11.9999C9.91137 11.9999 12 9.91125 12 7.33325C12 4.75459 9.91137 2.66659 7.33337 2.66659C4.75471 2.66659 2.66671 4.75459 2.66671 7.33325C2.66671 9.91125 4.75471 11.9999 7.33337 11.9999ZM12.99 12.0473L14.876 13.9326L13.9327 14.8759L12.0474 12.9899L12.99 12.0473V12.0473Z" fill="#A9B0B8"/>
</g>
<defs>
<clipPath id="clip0_10_661">
<rect width="16" height="16" fill="white"/>
</clipPath>
</defs>
</svg>
